<svg enable-background="new 0 0 512 512" viewBox="0 0 512 512" xmlns="http://www.w3.org/2000/svg"><path d="m497 241.34h-18.93c-3.48-53.93-26.15-104.14-64.71-142.7-38.47-38.48-88.56-61.13-142.36-64.69v-18.95c0-8.23-6.64-14.92-14.85-15h-.15c-8.28 0-15 6.72-15 15v18.95c-53.8 3.56-103.88 26.21-142.36 64.69-38.56 38.56-61.23 88.77-64.71 142.7h-18.93c-8.28 0-15 6.71-15 15 0 8.28 6.72 15 15 15h18.97c3.63 53.67 26.27 103.63 64.67 142.03 38.48 38.48 88.56 61.13 142.36 64.68v18.95c0 8.29 6.72 15 15 15h.15c8.21-.08 14.85-6.76 14.85-15v-18.95c53.8-3.55 103.89-26.2 142.36-64.68 38.4-38.4 61.04-88.36 64.67-142.03h18.97c8.28 0 15-6.72 15-15 0-8.29-6.72-15-15-15zm-66.91 30h17.85c-7.45 94.08-82.81 169.34-176.94 176.63v-17.88c0-8.23-6.64-14.92-14.85-15h-.15c-8.28 0-15 6.72-15 15v17.88c-94.12-7.29-169.49-82.55-176.94-176.63h17.85c8.28 0 15-6.72 15-15 0-8.29-6.72-15-15-15h-17.9c7.14-94.39 82.64-170 176.99-177.3v17.87c0 8.29 6.72 15 15 15h.15c8.21-.08 14.85-6.76 14.85-15v-17.87c94.35 7.3 169.85 82.91 176.99 177.3h-17.9c-8.28 0-15 6.71-15 15 0 8.28 6.72 15 15 15z" fill="#ff8659"/><path d="m512 256.34c0 8.28-6.72 15-15 15h-18.97c-3.63 53.67-26.27 103.63-64.67 142.03-38.47 38.48-88.56 61.13-142.36 64.68v18.95c0 8.24-6.64 14.92-14.85 15v-96.91c8.21.08 14.85 6.77 14.85 15v17.88c94.13-7.29 169.49-82.55 176.94-176.63h-17.85c-8.28 0-15-6.72-15-15 0-8.29 6.72-15 15-15h17.9c-7.14-94.39-82.64-170-176.99-177.3v17.87c0 8.24-6.64 14.92-14.85 15v-96.91c8.21.08 14.85 6.77 14.85 15v18.95c53.8 3.56 103.89 26.21 142.36 64.69 38.56 38.56 61.23 88.77 64.71 142.7h18.93c8.28 0 15 6.71 15 15z" fill="#ff405c"/><path d="m341.23 241.76v63.75c0 5.13-2.62 9.91-6.95 12.66-23.58 14.99-50.19 22.92-78.13 22.92s-55.8-7.93-79.38-22.92c-4.33-2.75-6.95-7.53-6.95-12.66v-63.75c0-8.28 6.71-15 15-15h141.41c8.28 0 15 6.72 15 15z" fill="#2b4747"/><path d="m341.23 241.76v63.75c0 5.13-2.62 9.91-6.95 12.66-23.58 14.99-50.19 22.92-78.13 22.92v-114.33h70.08c8.28 0 15 6.72 15 15z" fill="#18302f"/><path d="m401.95 219.81c0 6.3-3.93 11.92-9.84 14.09l-130.8 47.89c-1.67.61-3.41.92-5.16.92s-3.49-.31-5.16-.92l-130.8-47.89c-5.91-2.17-9.84-7.79-9.84-14.09 0-6.29 3.93-11.92 9.84-14.08l130.8-47.9c1.66-.61 3.41-.92 5.16-.92s3.5.31 5.16.92l130.8 47.9c5.91 2.16 9.84 7.79 9.84 14.08z" fill="#2a5959"/><path d="m401.95 219.81c0 6.3-3.93 11.92-9.84 14.09l-130.8 47.89c-1.67.61-3.41.92-5.16.92v-125.8c1.75 0 3.5.31 5.16.92l130.8 47.9c5.91 2.16 9.84 7.79 9.84 14.08z" fill="#2b4747"/></svg>
