<svg enable-background="new 0 0 512 512" viewBox="0 0 512 512" xmlns="http://www.w3.org/2000/svg">
  <path d="m238.574 44.104c-33.435 28.441-55.725 67.967-62.763 111.294l-22.482 123.89 102.671 26.291 12.231-137.297-12.231-137.296c-6.036 4.013-11.861 8.384-17.426 13.118z" fill="#585f64"/>
  <path d="m358.492 0c-36.589 0-72.264 10.891-102.492 30.986v274.593l104.112-26.29-24.3-132.028c-5.357-29.077 2.419-58.785 21.337-81.507s46.724-35.754 76.291-35.754v-30z" fill="#474f54"/>
  <path d="m211 396.683h-211c6.939 7.383 11.38 17.314 11.38 28.245 0 11.025-4.333 21.058-11.38 28.458l6.137 2.984h185.689l1.71 41.741h74.694l-12.23-56.428c0-24.853-20.147-45-45-45z" fill="#44d2f3"/>
  <path d="m301 396.683h211c-6.939 7.383-11.38 17.314-11.38 28.245 0 11.025 4.333 21.058 11.38 28.458l-6.137 2.984h-185.689l-1.71 41.741h-62.464v-56.428c0-24.853 20.147-45 45-45z" fill="#31aeca"/>
  <path d="m213.124 482v-28.614h-213.124v30h183.124v28.614h72.876l13.406-13.889-13.406-16.111z" fill="#fd465f"/>
  <path d="m298.236 453.386v28.614h-42.236v30h72.236v-28.614h183.764v-30z" fill="#ce0c51"/>
  <path d="m153.329 279.289-11.801 67.158h114.472l12.231-33.501-12.231-33.502z" fill="#fdd752"/>
  <path d="m360.112 279.289-104.112.155v67.003h113.304z" fill="#f8bd3f"/>
  <path d="m205.605 263.634v89.475h30v-59.475h20.395l13.406-14.19-13.406-15.81z" fill="#f8bd3f"/>
  <path d="m256 263.634v30h20.396v59.475h30v-89.475z" fill="#fd9326"/>
  <path d="m112.205 338.109c-8.432 0-15.292-6.859-15.292-15.291s6.86-15.292 15.292-15.292h13.052v-30h-13.052c-24.974 0-45.292 20.318-45.292 45.292s20.318 45.291 45.292 45.291h143.795l12.231-15.697-12.231-14.303z" fill="#474f54"/>
  <path d="m399.795 277.526h-13.052v30h13.052c8.432 0 15.292 6.86 15.292 15.292s-6.86 15.291-15.292 15.291h-143.795v30h143.795c24.974 0 45.292-20.317 45.292-45.291s-20.318-45.292-45.292-45.292z" fill="#31383e"/>
</svg>
