<svg enable-background="new 0 0 512 512" viewBox="0 0 512 512" xmlns="http://www.w3.org/2000/svg"><path d="m381.676 320.548h-256.215c-36.823 0-67.551 29.241-68.112 66.06-.571 37.475 29.747 68.143 67.094 68.143h4.556c19.823 0 35.892-16.07 35.892-35.892v-.72c0-19.373-15.428-35.21-34.643-35.871-9.145-.314-17.184 6.509-17.512 15.654-.332 9.256 7.071 16.865 16.251 16.871 1.846.001 3.358 1.501 3.358 3.347v.719c0 1.849-1.499 3.347-3.347 3.347h-3.868c-19.335 0-35.569-15.822-35.239-35.154.32-18.78 15.697-33.959 34.551-33.959h48.211c2.763 0 5.003 2.24 5.003 5.003v137.661c0 4.825 3.912 8.737 8.737 8.737h134.407c4.825 0 8.737-3.912 8.737-8.737v-137.66c0-2.763 2.24-5.003 5.003-5.003h46.447c19.335 0 35.569 15.822 35.239 35.154-.32 18.78-15.697 33.959-34.551 33.959h-5.207c-1.849 0-3.347-1.499-3.347-3.347v-.719c0-1.848 1.498-3.347 3.347-3.347h.192c8.762 0 16.302-6.734 16.714-15.487.44-9.345-7.007-17.059-16.254-17.059h-.651c-19.823 0-35.893 16.07-35.893 35.893v.719c0 19.823 16.07 35.892 35.892 35.892h4.189c36.823 0 67.551-29.241 68.112-66.06.573-37.476-29.746-68.144-67.093-68.144z" fill="#ded0cb"/><path d="m422.699 334.586c8.795 11.35 14.038 25.584 14.038 41.022 0 37-30.102 67.102-67.102 67.102h-5.207c-6.816 0-13.194-1.911-18.628-5.223 6.306 10.344 17.695 17.265 30.67 17.265h5.207c37 0 67.102-30.102 67.102-67.102 0-21.563-10.226-40.78-26.08-53.064z" fill="#c9beb9"/><path d="m356.521 320.199h-210.85c-4.635 0-8.392-3.757-8.392-8.392v-295.91c0-4.635 3.757-8.392 8.392-8.392h39.391 171.458c4.635 0 8.392 3.757 8.392 8.392v295.91c.001 4.635-3.757 8.392-8.391 8.392z" fill="#ae66d8"/><path d="m356.521 7.505h-26.485v269.425c0 4.635-3.757 8.392-8.392 8.392h-184.365v26.485c0 4.635 3.757 8.392 8.392 8.392h210.849c4.635 0 8.392-3.757 8.392-8.392v-295.91c.001-4.635-3.757-8.392-8.391-8.392z" fill="#9459bc"/><path d="m310.113 194.748h-103.248c-3.038 0-5.5-2.462-5.5-5.5v-76.067c0-3.038 2.462-5.5 5.5-5.5h103.248c3.038 0 5.5 2.462 5.5 5.5v76.067c0 3.037-2.462 5.5-5.5 5.5z" fill="#e7b467"/><path d="m310.109 107.681h-4.449v71.61c0 3.04-2.464 5.504-5.504 5.504h-98.791v4.449c0 3.04 2.464 5.504 5.504 5.504h103.24c3.04 0 5.504-2.464 5.504-5.504v-76.059c0-3.04-2.464-5.504-5.504-5.504z" fill="#d7a85f"/><path d="m445.973 72.576 1.949 7.961c3.159 12.905 12.128 22.002 24.278 27.378 1.15.767 1.15 2.457 0 3.224-12.15 5.376-21.119 14.473-24.278 27.378l-1.949 7.961c-.401 1.638-2.73 1.638-3.131 0l-1.949-7.961c-3.159-12.905-12.128-22.002-24.278-27.378-1.15-.767-1.15-2.457 0-3.224 12.15-5.376 21.119-14.473 24.278-27.378l1.949-7.961c.4-1.638 2.73-1.638 3.131 0z" fill="#fbd307"/><path d="m453.797 107.916c-7.7-3.407-14.116-8.313-18.591-14.731-4.476 6.418-10.891 11.325-18.591 14.731-1.15.767-1.15 2.457 0 3.224 7.7 3.407 14.116 8.313 18.591 14.731 4.476-6.418 10.891-11.325 18.591-14.731 1.15-.767 1.15-2.458 0-3.224z" fill="#fce25c"/><path d="m69.158 186.013 1.949 7.961c3.159 12.905 12.128 22.002 24.278 27.378 1.15.767 1.15 2.457 0 3.224-12.15 5.376-21.119 14.473-24.278 27.378l-1.949 7.961c-.401 1.638-2.73 1.638-3.131 0l-1.949-7.961c-3.159-12.905-12.128-22.002-24.278-27.378-1.15-.767-1.15-2.457 0-3.224 12.15-5.376 21.119-14.473 24.278-27.378l1.949-7.961c.401-1.638 2.73-1.638 3.131 0z" fill="#fbd307"/><path d="m76.982 221.352c-7.7-3.407-14.116-8.313-18.591-14.732-4.476 6.418-10.891 11.325-18.591 14.732-1.15.767-1.15 2.457 0 3.224 7.7 3.407 14.116 8.313 18.591 14.732 4.476-6.418 10.891-11.325 18.591-14.732 1.151-.767 1.151-2.457 0-3.224z" fill="#fce25c"/><path d="m396.304 174.07 3.168 12.94c5.135 20.975 19.711 35.761 39.459 44.498 1.87 1.246 1.87 3.994 0 5.24-19.748 8.737-34.325 23.522-39.459 44.498l-3.168 12.94c-.652 2.663-4.438 2.663-5.09 0l-3.168-12.94c-5.135-20.975-19.711-35.761-39.459-44.498-1.87-1.246-1.87-3.994 0-5.24 19.748-8.737 34.325-23.522 39.459-44.498l3.168-12.94c.653-2.662 4.439-2.662 5.09 0z" fill="#fbd307"/><path d="m409.02 231.508c-12.515-5.537-22.942-13.512-30.216-23.943-7.274 10.431-17.701 18.406-30.216 23.943-1.87 1.246-1.87 3.994 0 5.24 12.515 5.537 22.942 13.512 30.216 23.943 7.274-10.431 17.701-18.406 30.216-23.943 1.87-1.247 1.87-3.994 0-5.24z" fill="#fce25c"/><path d="m300.59 376.824v74.91c0 13.151-10.661 23.812-23.812 23.812h-99.12v18.818c0 5.595 4.536 10.131 10.131 10.131h131.62c5.595 0 10.131-4.536 10.131-10.131v-135.891h-10.597c-10.137 0-18.353 8.216-18.353 18.351z" fill="#c9beb9"/><path d="m381.676 313.043h-9.321c.032-.409.063-.819.063-1.236v-47.121c3.63 5.113 6.583 11.168 8.34 18.344l3.168 12.941c1.112 4.544 5.156 7.717 9.834 7.717s8.723-3.174 9.835-7.718l3.167-12.94c5.41-22.1 22.132-33.634 35.206-39.418.393-.174.77-.381 1.127-.619 2.97-1.981 4.743-5.294 4.743-8.864s-1.773-6.884-4.743-8.864c-.357-.238-.734-.445-1.127-.619-1.992-.881-3.94-1.837-5.789-2.84-3.644-1.979-8.2-.626-10.176 3.017-1.7 3.133-.94 6.942 1.625 9.205-16.729 9.445-28.288 23.064-33.868 39.938-5.559-16.812-17.056-30.394-33.686-39.835 16.632-9.443 28.129-23.026 33.688-39.84 1.401 4.227 3.188 8.276 5.337 12.089 2.035 3.612 6.612 4.89 10.223 2.854 3.611-2.035 4.889-6.612 2.854-10.223-2.393-4.246-4.214-8.884-5.413-13.782l-3.168-12.94c-1.112-4.544-5.156-7.717-9.835-7.717-4.678 0-8.722 3.174-9.834 7.718l-3.168 12.94c-1.756 7.176-4.71 13.231-8.339 18.344v-187.677c-.001-8.766-7.133-15.897-15.899-15.897h-210.848c-8.766 0-15.897 7.131-15.897 15.897v50.527c0 4.145 3.36 7.505 7.505 7.505s7.505-3.36 7.505-7.505v-50.527c0-.489.398-.887.887-.887h17.671v297.683h-17.671c-.489 0-.887-.398-.887-.887v-210.51c0-4.145-3.36-7.505-7.505-7.505s-7.505 3.36-7.505 7.505v210.511c0 .417.031.827.063 1.236h-4.376c-41.078 0-74.999 32.95-75.617 73.451-.307 20.125 7.315 39.118 21.462 53.482 14.151 14.368 33.022 22.281 53.137 22.281h4.556c19.113 0 35.379-12.417 41.153-29.61v63.111c0 8.956 7.286 16.242 16.243 16.242h75.709c4.145 0 7.505-3.36 7.505-7.505s-3.36-7.505-7.505-7.505h-75.709c-.68 0-1.232-.553-1.232-1.232v-137.662c0-6.897-5.611-12.509-12.509-12.509h-48.211c-22.801 0-41.667 18.543-42.056 41.336-.19 11.162 4.093 21.773 12.062 29.878 8.065 8.204 19.249 12.909 30.682 12.909h3.868c5.984 0 10.852-4.869 10.852-10.853v-.719c0-5.979-4.871-10.847-10.859-10.852-2.4-.001-4.64-.954-6.307-2.683-1.666-1.727-2.535-4.005-2.449-6.413.172-4.823 4.543-8.59 9.753-8.422 15.363.528 27.396 12.99 27.396 28.371v.719c0 15.653-12.735 28.387-28.388 28.387h-4.556c-16.062 0-31.136-6.323-42.443-17.803-11.303-11.477-17.392-26.648-17.148-42.721.493-32.35 27.682-58.669 60.609-58.669h256.215c16.063 0 31.136 6.323 42.443 17.803 11.303 11.477 17.392 26.648 17.147 42.721-.493 32.35-27.682 58.669-60.608 58.669h-4.189c-15.653 0-28.387-12.734-28.387-28.387v-.719c0-15.653 12.735-28.388 28.388-28.388h.651c2.421 0 4.674.965 6.346 2.717 1.67 1.75 2.526 4.053 2.412 6.484-.216 4.595-4.351 8.334-9.217 8.334h-.192c-5.984 0-10.852 4.868-10.852 10.852v.719c0 5.984 4.868 10.853 10.852 10.853h5.207c22.801 0 41.667-18.543 42.056-41.336.19-11.162-4.094-21.773-12.061-29.878-8.065-8.204-19.249-12.909-30.682-12.909h-46.447c-6.897 0-12.508 5.611-12.508 12.509v137.661c0 .679-.553 1.232-1.232 1.232h-24.174c-4.145 0-7.505 3.36-7.505 7.505s3.36 7.505 7.505 7.505h24.174c8.956 0 16.243-7.286 16.243-16.242v-58.766c6.88 14.9 21.965 25.265 39.426 25.265h4.189c41.078 0 74.999-32.95 75.617-73.451.307-20.125-7.315-39.118-21.462-53.482-14.152-14.368-33.023-22.28-53.139-22.28zm-251.171 61.725c-13.441-.462-24.801 9.804-25.269 22.886-.133 3.706.573 7.299 2.039 10.572-.738-.61-1.447-1.26-2.123-1.947-5.123-5.212-7.878-11.994-7.757-19.099.25-14.657 12.383-26.582 27.047-26.582h45.709v43.643c-5.586-16.716-21.016-28.833-39.646-29.473zm47.848-359.758h178.167c.489 0 .887.398.887.887v202.193c-4.016 2.738-8.087 4.886-11.856 6.554-.393.174-.77.381-1.127.619-2.97 1.981-4.743 5.294-4.743 8.864s1.773 6.884 4.743 8.864c.357.238.734.445 1.127.619 3.768 1.667 7.84 3.816 11.856 6.554v61.642c0 .489-.398.887-.887.887h-178.167zm158.691 384.997v-39.409h43.945c7.435 0 14.717 3.07 19.979 8.422 5.123 5.212 7.878 11.994 7.757 19.099-.141 8.288-4.082 15.703-10.132 20.582 1.326-2.756 2.128-5.81 2.28-9.042.309-6.57-2.015-12.803-6.545-17.551-4.466-4.681-10.737-7.366-17.206-7.366h-.651c-17.462 0-32.547 10.364-39.427 25.265z"/><path d="m216.547 383.694v60.82c0 4.145 3.36 7.505 7.505 7.505s7.505-3.36 7.505-7.505v-60.82c0-4.145-3.36-7.505-7.505-7.505-4.144 0-7.505 3.36-7.505 7.505z"/><path d="m246.093 383.694v60.82c0 4.145 3.36 7.505 7.505 7.505s7.505-3.36 7.505-7.505v-60.82c0-4.145-3.36-7.505-7.505-7.505s-7.505 3.36-7.505 7.505z"/><path d="m290.648 383.694c0-4.145-3.36-7.505-7.505-7.505s-7.505 3.36-7.505 7.505v60.82c0 4.145 3.36 7.505 7.505 7.505s7.505-3.36 7.505-7.505z"/><path d="m310.109 100.176h-103.24c-7.173 0-13.009 5.836-13.009 13.009v76.06c0 7.173 5.836 13.009 13.009 13.009h103.24c7.173 0 13.009-5.836 13.009-13.009v-76.06c0-7.174-5.835-13.009-13.009-13.009zm-2.001 87.067h-99.238v-72.057h99.238z"/><path d="m238.08 143.411h39.338c4.145 0 7.505-3.36 7.505-7.505s-3.36-7.505-7.505-7.505h-39.338c-4.145 0-7.505 3.36-7.505 7.505s3.36 7.505 7.505 7.505z"/><path d="m238.08 172.783h39.338c4.145 0 7.505-3.36 7.505-7.505s-3.36-7.505-7.505-7.505h-39.338c-4.145 0-7.505 3.36-7.505 7.505s3.36 7.505 7.505 7.505z"/><path d="m476.364 101.671c-.358-.238-.735-.446-1.128-.62-10.839-4.795-17.576-12.298-20.025-22.299l-1.949-7.962c-1.002-4.092-4.643-6.949-8.856-6.949-4.212 0-7.854 2.857-8.855 6.95l-1.95 7.962c-2.448 10.001-9.185 17.503-20.024 22.299-.393.174-.771.381-1.128.62-2.632 1.756-4.204 4.693-4.204 7.857s1.573 6.101 4.206 7.855c.357.238.733.445 1.126.619 10.839 4.795 17.577 12.298 20.025 22.299l1.949 7.962c1.002 4.091 4.643 6.948 8.855 6.948s7.854-2.857 8.856-6.949l1.95-7.962c2.448-10.001 9.185-17.504 20.025-22.299.392-.174.769-.381 1.126-.619 2.633-1.755 4.205-4.691 4.206-7.855-.001-3.163-1.572-6.101-4.205-7.857zm-31.957 24.911c-3.474-6.746-8.616-12.489-15.273-17.054 6.656-4.565 11.8-10.308 15.274-17.054 3.474 6.745 8.617 12.489 15.273 17.054-6.658 4.565-11.799 10.308-15.274 17.054z"/><path d="m58.737 261.7c1.002 4.092 4.643 6.949 8.855 6.949s7.854-2.857 8.856-6.95l1.948-7.961c2.448-10.001 9.186-17.504 20.025-22.299.392-.174.769-.381 1.126-.619 2.633-1.755 4.206-4.692 4.206-7.857s-1.572-6.102-4.206-7.857c-.357-.238-.733-.445-1.126-.619-10.839-4.795-17.577-12.298-20.025-22.299l-1.949-7.961c-1.002-4.092-4.643-6.949-8.856-6.949-4.212 0-7.854 2.857-8.855 6.949l-1.95 7.962c-2.448 10.001-9.185 17.504-20.024 22.299-.392.174-.769.381-1.126.619-2.633 1.755-4.206 4.692-4.206 7.857s1.572 6.102 4.206 7.857c.357.238.733.445 1.126.619 10.839 4.795 17.577 12.298 20.025 22.299zm8.856-55.79c3.475 6.746 8.617 12.489 15.274 17.054-6.657 4.565-11.8 10.308-15.274 17.054-3.474-6.746-8.616-12.489-15.274-17.054 6.657-4.566 11.799-10.308 15.274-17.054z"/></svg>
