<svg viewBox="0 0 50 60" xmlns="http://www.w3.org/2000/svg"><g id="Page-1" fill="none" fill-rule="evenodd"><g id="052---Adventure-Novel" fill-rule="nonzero" transform="translate(-1)"><g id="Icons" transform="translate(1 1)"><path id="Shape" d="m49 2v39c0 1.1-.9 3-2 3h-41c-2.76142375 0-5 2.2385763-5 5v-44c0-2.76142375 2.23857625-5 5-5h41c1.1045695 0 2 .8954305 2 2z" fill="#3f51b5"/><path id="Shape" d="m47 0h-3c1.1045695 0 2 .8954305 2 2v39c0 1.1-.9 3-2 3h3c1.1 0 2-1.9 2-3v-39c0-1.1045695-.8954305-2-2-2z" fill="#283593"/><path id="Shape" d="m46 54h-25v-5h-10v5h-4.79c-2.63477087.0510682-4.88300553-1.8951004-5.21-4.51-.00976889-.1631873-.00976889-.3268127 0-.49 0-2.7614237 2.23857625-5 5-5h40c-1.66 0-3 2.24-3 5s1.34 5 3 5z" fill="#ffeb3a"/><path id="Shape" d="m49 41v11c0 1.1045695-.8954305 2-2 2h-1c-1.66 0-3-2.24-3-5s1.34-5 3-5h1c1.1 0 2-1.9 2-3z" fill="#3f51b5"/><path id="Shape" d="m47 44h-1v8c-.0078164.7066408-.3879687 1.3567012-1 1.71.3030015.1807012.6473334.2805575 1 .29h1c1.1045695 0 2-.8954305 2-2v-11c0 1.1-.9 3-2 3z" fill="#283593"/><path id="Shape" d="m21 49v8c-.0000627.3593049-.1928829.6909565-.505101.8687761-.3122182.1778196-.6958342.1744694-1.004899-.0087761l-3-1.79c-.3094011-.1786328-.6905989-.1786328-1 0l-3 1.79c-.3078262.1730625-.6841081.1709358-.9899584-.0055953-.3058504-.176531-.4959155-.5012891-.5000416-.8544047v-8z" fill="#e91e63"/><path id="Shape" d="m26 28.21 17.48-10.6c.3036995-.1800643.4899384-.5069327.49-.86v-9.75c0-.55228475-.4477153-1-1-1h-9.72c-.3530673.00006158-.6799357.18630055-.86.49l-10.6 17.51z" fill="#7f8e94"/><rect id="Rectangle-path" fill="#a0522d" height="6" rx="2" transform="matrix(.707 .707 -.707 .707 26.335 -7.142)" width="16" x="13.789" y="25.218"/><path id="Shape" d="m13.4934697 29.0038376h6v7c0 1.1045695-.8954305 2-2 2h-2c-1.1045695 0-2-.8954305-2-2z" fill="#825a2c" transform="matrix(.707 .707 -.707 .707 28.522 -1.85)"/></g><g id="Icons_copy" fill="#000"><path id="Shape" d="m48 0h-41c-3.3137085 0-6 2.6862915-6 6v44c-.01014953.1965357-.01014953.3934643 0 .59.39164725 3.120888 3.06488482 5.4497471 6.21 5.41h3.79v2c-.002848.7173695.3787316 1.3813181 1 1.74.3048058.1727609.6496472.2624197 1 .26.3535312-.0037394.6993192-.1040179 1-.29l3-1.78 3 1.78c.6153996.3553584 1.3731469.3574801 1.9905269.0055735s1.0016629-1.0049855 1.0094731-1.7155735v-2h25c1.6568542 0 3-1.3431458 3-3v-50c0-1.65685425-1.3431458-3-3-3zm-27 58-3-1.79c-.633865-.3808262-1.426135-.3808262-2.06 0l-2.94 1.79v-7h8zm2-7h3c.5522847 0 1-.4477153 1-1s-.4477153-1-1-1h-17c-.55228475 0-1 .4477153-1 1s.44771525 1 1 1h2v3h-3.79c-2.12446701.0428003-3.9397109-1.5223625-4.21-3.63 0-.13 0-.25 0-.37 0-2.209139 1.790861-4 4-4h37c-1.3333333 2.5-1.3333333 5.5 0 8h-21zm25 3h-1c-.94 0-2-1.71-2-4s1.06-4 2-4h1c.3512598-.0006233.6961604-.0937465 1-.27v7.27c0 .5522847-.4477153 1-1 1zm0-10h-39v-1c0-.5522847-.44771525-1-1-1s-1 .4477153-1 1v1c-1.47746441.0033352-2.90175242.551686-4 1.54v-39.54c0-2.209139 1.790861-4 4-4v1c0 .55228475.44771525 1 1 1s1-.44771525 1-1v-1h39c.5522847 0 1 .44771525 1 1v39c-.0286401.7798547-.3933003 1.5091751-1 2z"/><path id="Shape" d="m8 6c-.55228475 0-1 .44771525-1 1v2c0 .55228475.44771525 1 1 1s1-.44771525 1-1v-2c0-.55228475-.44771525-1-1-1z"/><path id="Shape" d="m8 12c-.55228475 0-1 .4477153-1 1v2c0 .5522847.44771525 1 1 1s1-.4477153 1-1v-2c0-.5522847-.44771525-1-1-1z"/><path id="Shape" d="m8 18c-.55228475 0-1 .4477153-1 1v2c0 .5522847.44771525 1 1 1s1-.4477153 1-1v-2c0-.5522847-.44771525-1-1-1z"/><path id="Shape" d="m8 24c-.55228475 0-1 .4477153-1 1v2c0 .5522847.44771525 1 1 1s1-.4477153 1-1v-2c0-.5522847-.44771525-1-1-1z"/><path id="Shape" d="m8 30c-.55228475 0-1 .4477153-1 1v2c0 .5522847.44771525 1 1 1s1-.4477153 1-1v-2c0-.5522847-.44771525-1-1-1z"/><path id="Shape" d="m8 36c-.55228475 0-1 .4477153-1 1v2c0 .5522847.44771525 1 1 1s1-.4477153 1-1v-2c0-.5522847-.44771525-1-1-1z"/><path id="Shape" d="m44 6h-9.75c-.7066408.00781643-1.3567012.38796873-1.71 1l-9.95 16.36-1.22-1.22c-1.1712702-1.1698135-3.0687298-1.1698135-4.24 0l-1.41 1.42c-1.1698135 1.1712702-1.1698135 3.0687298 0 4.24l1.41 1.41-4.24 4.25c-1.1698135 1.1712702-1.1698135 3.0687298 0 4.24l1.41 1.41c1.1712702 1.1698135 3.0687298 1.1698135 4.24 0l4.25-4.24 1.41 1.41c1.1712702 1.1698135 3.0687298 1.1698135 4.24 0l1.42-1.41c1.1698135-1.1712702 1.1698135-3.0687298 0-4.24l-1.22-1.22 16.36-9.95c.6120313-.3532988.9921836-1.0033592 1-1.71v-9.75c0-1.1045695-.8954305-2-2-2zm-22.63 27.46-4.24 4.24c-.3900375.3877236-1.0199625.3877236-1.41 0l-1.42-1.42c-.3877236-.3900375-.3877236-1.0199625 0-1.41l4.24-4.24 1.46 1.37zm7.07 0-1.44 1.41c-.3900375.3877236-1.0199625.3877236-1.41 0l-8.49-8.49c-.3877236-.3900375-.3877236-1.0199625 0-1.41l1.41-1.41c.1870714-.1908556.4427541-.2988906.71-.3.2672459.0011094.5229286.1091444.71.3l8.51 8.44c.1893127.1877666.2957983.4433625.2957983.71s-.1064856.5222334-.2957983.71zm15.56-15.71-16.82 10.25-3.13-3.13 10.2-16.87h9.75z"/><path id="Shape" d="m27.74 24.26c.3900375.3877236 1.0199625.3877236 1.41 0l11.31-11.26c.3877236-.3900375.3877236-1.0199625 0-1.41-.3900375-.3877236-1.0199625-.3877236-1.41 0l-11.31 11.26c-.3877236.3900375-.3877236 1.0199625 0 1.41z"/></g></g></g></svg>
