<?xml version="1.0" standalone="no"?>
<!DOCTYPE svg PUBLIC "-//W3C//DTD SVG 20010904//EN"
 "http://www.w3.org/TR/2001/REC-SVG-20010904/DTD/svg10.dtd">
<svg version="1.0" xmlns="http://www.w3.org/2000/svg"
 width="764.000000pt" height="764.000000pt" viewBox="0 0 764.000000 764.000000"
 preserveAspectRatio="xMidYMid meet">
<metadata>
Created by potrace 1.11, written by Peter Selinger 2001-2013
</metadata>
<g transform="translate(0.000000,764.000000) scale(0.100000,-0.100000)"
fill="#000000" stroke="none">
<path d="M1210 7253 c0 -7 64 -97 75 -105 5 -4 -38 -8 -95 -8 -58 -1 -118 -3
-135 -5 -16 -1 -54 -3 -82 -4 -59 -1 -67 -11 -25 -28 88 -38 250 -149 275
-190 4 -6 -12 -23 -36 -38 -23 -16 -55 -42 -70 -59 -39 -42 -267 -335 -267
-342 0 -3 12 -3 26 0 l26 7 -23 -33 c-13 -18 -37 -44 -54 -58 -105 -87 -105
-88 -298 -515 -173 -385 -282 -708 -312 -929 -3 -25 -11 -65 -29 -161 -23
-115 -27 -145 -22 -145 3 0 41 30 84 68 43 37 103 87 131 112 29 25 57 46 62
48 8 3 -6 -37 -31 -93 -78 -171 -115 -321 -124 -497 -3 -63 -9 -83 -29 -110
-67 -89 -148 -315 -174 -483 -2 -16 -13 -84 -24 -149 -11 -66 -22 -138 -25
-160 -3 -23 -7 -52 -10 -66 -26 -163 -25 -702 2 -835 3 -11 7 -40 9 -65 5 -44
26 -153 45 -235 5 -22 20 -87 34 -145 61 -256 75 -317 80 -340 24 -112 59
-256 65 -262 3 -4 6 5 7 20 1 15 4 50 7 77 3 28 9 75 13 105 3 30 7 56 9 58 1
1 15 -32 30 -75 40 -114 91 -211 191 -363 48 -74 95 -146 104 -160 8 -14 24
-40 35 -57 25 -41 31 -41 31 0 1 80 16 396 19 413 2 11 4 26 5 34 1 16 7 5 48
-95 38 -95 129 -282 184 -379 43 -77 49 -93 43 -125 -4 -20 -9 -47 -11 -61 -3
-14 -11 -61 -20 -105 -8 -44 -17 -96 -20 -115 -3 -19 -7 -40 -9 -47 -2 -7 -1
-15 4 -17 9 -6 225 -66 261 -72 30 -6 283 -72 324 -85 24 -7 84 9 365 103 185
61 337 112 337 112 2 1 12 69 21 136 6 53 4 49 32 55 13 2 30 6 39 9 9 3 35 7
57 11 22 3 65 10 95 15 71 12 105 17 160 25 25 3 52 8 60 10 8 2 40 7 70 10
62 7 118 13 170 20 278 33 545 48 890 48 318 1 587 -13 850 -43 178 -20 222
-25 285 -35 58 -9 110 -17 140 -21 45 -5 94 -14 151 -25 28 -5 64 -12 80 -15
16 -3 36 -7 44 -9 8 -2 18 -4 21 -4 3 -1 6 -7 6 -13 0 -20 23 -172 26 -174 3
-2 342 -115 357 -118 8 -3 81 -27 162 -55 l147 -50 308 80 c168 43 309 82 312
84 3 3 -1 39 -8 79 -6 41 -14 87 -17 103 -2 15 -9 51 -14 78 -22 114 -23 107
31 201 60 103 151 292 199 411 19 46 36 81 38 78 3 -2 6 -33 8 -67 1 -35 6
-124 10 -198 3 -74 7 -154 7 -177 1 -24 4 -43 7 -43 6 1 246 376 277 434 28
51 96 225 96 243 0 7 4 13 9 13 4 0 8 -17 9 -37 0 -21 2 -45 4 -53 7 -37 16
-100 17 -133 1 -34 18 -55 18 -22 0 12 45 209 80 350 5 22 12 51 15 65 2 14
20 90 40 170 37 153 70 312 80 395 4 28 9 61 11 75 19 116 25 543 10 690 -4
41 -9 95 -12 120 -10 98 -66 421 -89 513 -33 130 -76 238 -126 317 -35 55 -42
75 -45 124 -8 177 -51 353 -124 511 -22 47 -39 95 -33 95 5 0 111 -88 144
-120 9 -8 38 -33 64 -55 27 -22 55 -46 62 -54 16 -15 15 -6 -13 136 -8 39 -17
89 -20 110 -25 163 -85 391 -159 603 -34 98 -298 693 -340 765 -20 36 -67 85
-146 157 -14 12 -31 32 -37 44 -10 19 -9 21 15 16 33 -6 37 -12 -110 176 -132
170 -152 192 -208 229 -34 22 -37 27 -26 44 22 31 87 79 195 141 56 34 101 62
100 63 -6 5 -235 18 -301 16 l-68 -1 42 56 c22 30 39 57 37 59 -1 1 -75 -21
-163 -50 -224 -74 -297 -115 -420 -239 -152 -153 -295 -400 -470 -811 -41 -99
-80 -189 -85 -200 -5 -11 -23 -54 -40 -96 -17 -42 -42 -91 -56 -110 -38 -53
-133 -147 -197 -196 -60 -47 -86 -54 -42 -13 40 38 32 52 -17 31 -24 -10 -97
-34 -163 -55 -66 -20 -144 -49 -174 -63 -77 -38 -153 -117 -194 -202 l-34 -71
-20 23 c-25 27 -34 51 -39 102 -10 95 -51 169 -121 216 -26 18 -88 65 -138
105 -127 102 -194 144 -230 144 -49 0 -110 -44 -215 -155 -19 -21 -56 -48 -83
-61 -58 -30 -123 -87 -144 -127 -8 -16 -17 -53 -20 -81 -5 -51 -51 -168 -71
-180 -6 -4 -28 26 -52 73 -43 83 -104 153 -168 195 -31 21 -157 69 -212 81 -8
2 -59 19 -113 39 -92 32 -97 33 -83 13 52 -72 43 -71 -49 7 -128 109 -175 169
-225 284 -23 53 -45 106 -50 117 -5 11 -44 101 -86 200 -166 392 -315 648
-463 795 -88 87 -111 104 -216 156 -80 40 -365 139 -365 127z"/>
</g>
</svg>
